<svg xmlns="http://www.w3.org/2000/svg" xmlns:xlink="http://www.w3.org/1999/xlink"><symbol id="icon-clip" viewBox="0 0 44 44">
<path d="M32 28H36V12C36 10.9391 35.5786 9.92172 34.8284 9.17157C34.0783 8.42143 33.0609 8 32 8H16V12H32V28ZM12 32V0H8V8H0V12H8V32C8 33.0609 8.42143 34.0783 9.17157 34.8284C9.92172 35.5786 10.9391 36 12 36H32V44H36V36H44V32H12Z"/>
</symbol><symbol id="icon-contrast" viewBox="0 0 32 32">
<path d="M16 4C18.3734 4 20.6935 4.70379 22.6669 6.02236C24.6402 7.34094 26.1783 9.21509 27.0866 11.4078C27.9948 13.6005 28.2325 16.0133 27.7694 18.3411C27.3064 20.6689 26.1635 22.8071 24.4853 24.4853C22.8071 26.1635 20.6689 27.3064 18.3411 27.7694C16.0133 28.2324 13.6005 27.9948 11.4078 27.0866C9.21509 26.1783 7.34095 24.6402 6.02237 22.6668C4.70379 20.6935 4.00001 18.3734 4.00001 16C4.00001 12.8174 5.26429 9.76515 7.51473 7.51472C9.76516 5.26428 12.8174 4 16 4ZM16 0C12.8355 0 9.74207 0.938384 7.11088 2.69649C4.4797 4.45459 2.42894 6.95345 1.21793 9.87706C0.0069325 12.8007 -0.309921 16.0177 0.307443 19.1214C0.924806 22.2251 2.44866 25.0761 4.6863 27.3137C6.92394 29.5513 9.77487 31.0752 12.8786 31.6926C15.9823 32.3099 19.1993 31.9931 22.1229 30.7821C25.0466 29.5711 27.5454 27.5203 29.3035 24.8891C31.0616 22.2579 32 19.1645 32 16C32 11.7565 30.3143 7.68687 27.3137 4.68629C24.3131 1.68571 20.2435 0 16 0Z"/>
<path d="M16 24.29C18.1536 24.1422 20.1708 23.1824 21.644 21.6046C23.1172 20.0268 23.9366 17.9486 23.9366 15.79C23.9366 13.6314 23.1172 11.5532 21.644 9.97538C20.1708 8.39759 18.1536 7.43782 16 7.29"/>
</symbol><symbol id="icon-facebook"><path d="M6.509 3.193H9V0H6.02C2.762.171 1.6 2.271 2.077 5.816H0v3.336h2.076V18h3.945V9.152h2.958V5.816H6.01c-.02-.998-.041-2.29.499-2.623z" fill="#D22856"/></symbol><symbol id="icon-fill" viewBox="0 0 48 43">
<path d="M33.12 17.88L15.24 0L12.41 2.83L17.17 7.59L6.88 17.88C6.3182 18.4425 6.00264 19.205 6.00264 20C6.00264 20.795 6.3182 21.5575 6.88 22.12L17.88 33.12C18.4425 33.6818 19.205 33.9974 20 33.9974C20.795 33.9974 21.5575 33.6818 22.12 33.12L33.12 22.12C33.6818 21.5575 33.9974 20.795 33.9974 20C33.9974 19.205 33.6818 18.4425 33.12 17.88ZM10.41 20L20 10.42L29.59 20H10.41ZM38 23C38 23 34 27.33 34 30C34 31.0609 34.4214 32.0783 35.1716 32.8284C35.9217 33.5786 36.9391 34 38 34C39.0609 34 40.0783 33.5786 40.8284 32.8284C41.5786 32.0783 42 31.0609 42 30C42 27.33 38 23 38 23Z"/>
<path d="M48 40H0V43H48V40Z"/>
</symbol><symbol id="icon-heart"><path d="M6.469 12a.782.782 0 01-.58-.25C1.958 7.42 1.036 6.44.86 6.17A3.765 3.765 0 010 3.8a3.723 3.723 0 01.63-2.045A3.921 3.921 0 012.3.355a4.09 4.09 0 012.187-.32A4.031 4.031 0 016.51.9 4.08 4.08 0 019.07 0a4.013 4.013 0 012.78 1.117A3.733 3.733 0 0113 3.8a3.409 3.409 0 01-.923 2.38l-5.038 5.56a.757.757 0 01-.57.25V12zM2.073 5.28c.218.26 2.56 2.84 4.396 4.86l4.478-4.94a1.96 1.96 0 00.539-1.4c0-.618-.254-1.21-.707-1.648A2.461 2.461 0 009.07 1.47a2.61 2.61 0 00-1.097.252c-.341.163-.64.398-.873.688a.844.844 0 01-.612.28.757.757 0 01-.332-.082.729.729 0 01-.258-.218 2.43 2.43 0 00-.868-.682 2.49 2.49 0 00-2.372.132 2.369 2.369 0 00-.882.968 2.267 2.267 0 00.296 2.462v.01z"/></symbol><symbol id="icon-htmlacademy"><path d="M13.643.016L13.5 0 0 1.407v24.606L13.5 34 27 26.013V1.407L13.643.016zm11.591 25L13.5 31.956 1.766 25.015V14.93l11.685 6.916.02 1.253-8.017-4.743-.011 1.225 8.046 4.809.02 1.286-8.045-4.758-.01 1.226L13.5 26.95l8.124-4.833V16.91l3.62-2.15-.01 10.256zm0-11.564l-3.22 1.88-1.482.875-7.065-4.187-.011 1.225 6.04 3.573-.053.031-.13.076-.86.492-4.986-2.948-.011 1.225 3.936 2.328-.933.61-.021.012-2.971-1.742-.011 1.225 1.947 1.135-1.988 1.186-11.618-6.872 11.638-6.958 11.8 6.834zm0-1.225L13.44 5.31 1.766 12.22V2.99L13.5 1.764 25.234 2.99v9.237z"/></symbol><symbol id="icon-logo-footer-desktop"><path d="M72.193 18.425c0-.333.133-.652.369-.89.237-.238.558-.376.897-.384h7.211c5.113 0 8.477 2.676 8.477 7.06v.06c0 4.798-4.078 7.286-8.899 7.286h-5.494v6.734a1.244 1.244 0 01-.332.965 1.286 1.286 0 01-.948.41 1.304 1.304 0 01-.949-.41 1.26 1.26 0 01-.332-.965V18.425zm8.156 10.861c3.746 0 6.207-1.975 6.207-4.937v-.059c0-3.18-2.42-4.828-6.026-4.828h-5.725v9.785l5.544.04zm13.67-11.019a1.243 1.243 0 01.332-.965 1.286 1.286 0 01.948-.41 1.306 1.306 0 01.948.41 1.26 1.26 0 01.333.965V38.29a1.245 1.245 0 01-.332.965 1.284 1.284 0 01-.949.41 1.305 1.305 0 01-.948-.41 1.26 1.26 0 01-.332-.965V18.267zm9.18.03a1.25 1.25 0 01.38-.868c.236-.23.553-.362.885-.367h.352a1.552 1.552 0 011.295.731l13.751 17.23V18.237c0-.324.131-.636.364-.865a1.258 1.258 0 011.762 0c.233.23.364.54.364.865v20.094a1.118 1.118 0 01-.711 1.082 1.161 1.161 0 01-.454.083h-.13a1.739 1.739 0 01-.756-.23 1.709 1.709 0 01-.57-.54L105.67 21.09v17.24a1.238 1.238 0 01-.353.853c-.224.23-.529.366-.853.381a1.257 1.257 0 01-.871-.369 1.21 1.21 0 01-.354-.865V18.297h-.04zm25.541-.03a1.243 1.243 0 01.332-.965 1.287 1.287 0 01.949-.41 1.306 1.306 0 01.948.41 1.242 1.242 0 01.332.965v12.175l12.897-13.005a1.496 1.496 0 011.004-.444 1.3 1.3 0 01.87.38c.23.232.361.54.366.864a1.262 1.262 0 01-.422.889l-8.035 7.82 8.667 10.427c.227.258.352.587.352.928a1.287 1.287 0 01-.847 1.18c-.162.06-.335.09-.509.084a1.227 1.227 0 01-1.004-.573l-8.447-10.357-4.892 4.798v4.839a1.237 1.237 0 01-.373.886 1.282 1.282 0 01-.902.367 1.29 1.29 0 01-.902-.367 1.244 1.244 0 01-.374-.886V18.267h-.01z"/><path d="M98.94 9.746a3.678 3.678 0 01-2.574-1.047 3.554 3.554 0 01-1.072-2.528c0 .948-.383 1.857-1.065 2.528a3.668 3.668 0 01-2.57 1.047c.965.002 1.89.38 2.57 1.053a3.554 3.554 0 011.065 2.53 3.561 3.561 0 011.071-2.53 3.688 3.688 0 012.575-1.053zm-55.653 9.321h.733a2.47 2.47 0 00-.906-.887 2.523 2.523 0 00-1.233-.328 2.03 2.03 0 01-1.166-.368 1.978 1.978 0 01-.732-.965c-.724.206-1.427.477-2.1.81h.191c.533 0 1.044.208 1.42.578.377.37.589.873.589 1.397.005.095.005.19 0 .286a8.977 8.977 0 013.204-.523z" fill="#D22856"/><path d="M60.733 27.647l-5.192-21.08C55.179 4.245 52.929 0 46.903 0c-.4 0-.783.156-1.066.434a1.469 1.469 0 00-.44 1.047c0 .393.158.77.44 1.047a1.52 1.52 0 001.066.434c4.871 0 5.594 3.683 5.665 4.088l4.78 19.452H55.25a11.721 11.721 0 00-1.724-4.78 11.946 11.946 0 00-3.599-3.633 2.502 2.502 0 00-1.116.908c-.274.404-.42.878-.42 1.363.005.086.005.171 0 .257a9.148 9.148 0 012.922 3.207 8.974 8.974 0 011.095 4.169 9.042 9.042 0 01-.14 1.48 8.849 8.849 0 01-3.05 5.393 9.132 9.132 0 01-5.885 2.141 9.132 9.132 0 01-5.885-2.141 8.849 8.849 0 01-3.049-5.392 9.031 9.031 0 01-.14-1.481c.015-1.37.341-2.72.954-3.95a2.023 2.023 0 01-1.33-.625 1.957 1.957 0 01-.538-1.35.694.694 0 00-.191-.483 11.566 11.566 0 00-1.798 4.936h-1.868a11.782 11.782 0 00-3.933-7.54 12.17 12.17 0 00-8.05-3.03 12.17 12.17 0 00-8.05 3.03 11.782 11.782 0 00-3.932 7.54h-2.08L8.233 7.05c.061-.405.814-4.088 5.666-4.088.4 0 .783-.156 1.065-.434.282-.277.441-.654.441-1.047 0-.393-.159-.77-.441-1.047A1.52 1.52 0 0013.899 0C7.872 0 5.623 4.246 5.26 6.566L.058 27.647a1.38 1.38 0 00.247 1.263 1.43 1.43 0 001.189.534h4.018c.082.611.21 1.215.382 1.807a.731.731 0 00.1-.355c0-.524.212-1.026.589-1.397.376-.37.887-.578 1.42-.578.162.004.324.024.482.06a8.536 8.536 0 01-.07-.988c.002-.497.046-.992.13-1.481a8.848 8.848 0 013.042-5.414 9.131 9.131 0 015.897-2.152c2.165 0 4.258.764 5.898 2.152a8.848 8.848 0 013.041 5.414c.085.49.128.984.131 1.48a8.775 8.775 0 01-1.334 4.7 8.984 8.984 0 01-3.656 3.298 9.174 9.174 0 01-9.503-.858c-.363.31-.826.48-1.306.483a.76.76 0 00-.526.22.734.734 0 00-.217.521 1.946 1.946 0 01-.181.8 12.088 12.088 0 007.643 2.705 12.174 12.174 0 008.012-2.951 11.789 11.789 0 004-7.436h1.829a11.784 11.784 0 003.944 7.51A12.171 12.171 0 0043.292 40a12.17 12.17 0 008.033-3.015 11.784 11.784 0 003.944-7.511h4.018c.232.016.465-.024.678-.117.212-.093.398-.236.541-.417a1.38 1.38 0 00.227-1.293z" fill="#D22856"/><path d="M50.92 15.917a4.577 4.577 0 01-1.729-.335 4.516 4.516 0 01-1.466-.96 4.43 4.43 0 01-.98-1.44 4.37 4.37 0 01-.344-1.699 4.406 4.406 0 01-1.328 3.136 4.56 4.56 0 01-3.192 1.298 4.57 4.57 0 013.193 1.304 4.416 4.416 0 011.327 3.14c0-1.18.476-2.31 1.323-3.143a4.56 4.56 0 013.196-1.301zm-12.846 3.466a2.786 2.786 0 01-1.953-.796 2.692 2.692 0 01-.809-1.92c0 .719-.29 1.408-.805 1.917a2.786 2.786 0 01-1.947.799c.73 0 1.43.285 1.946.792.516.507.806 1.195.806 1.913a2.693 2.693 0 01.813-1.914 2.787 2.787 0 011.95-.791zM10.785 33.64a2.786 2.786 0 01-1.94-.802 2.692 2.692 0 01-.802-1.913c0 .719-.29 1.408-.805 1.917a2.786 2.786 0 01-1.947.799c.73.002 1.43.29 1.947.798.515.51.805 1.199.805 1.917 0-.717.288-1.404.802-1.913a2.786 2.786 0 011.94-.802z"/></symbol><symbol id="icon-logo-footer-tablet"><path d="M71.005 18.549a1.284 1.284 0 011.252-1.287h7.133c5.057 0 8.385 2.703 8.385 7.13v.06c0 4.846-4.034 7.358-8.802 7.358h-5.435v6.801a1.282 1.282 0 01-.754 1.28 1.27 1.27 0 01-1.717-.758 1.282 1.282 0 01-.062-.522V18.549zm8.067 10.968c3.706 0 6.14-1.994 6.14-4.986v-.06c0-3.21-2.395-4.875-5.961-4.875h-5.663v9.881l5.484.04zm13.522-11.128a1.282 1.282 0 01.754-1.28 1.269 1.269 0 011.717.758c.056.168.078.346.062.522v20.222a1.28 1.28 0 01-.754 1.28 1.27 1.27 0 01-1.717-.758 1.282 1.282 0 01-.063-.522V18.389zm9.08.03a1.278 1.278 0 011.252-1.247h.347a1.535 1.535 0 011.282.738l13.601 17.4V18.36c0-.329.13-.643.361-.875a1.229 1.229 0 011.742 0c.231.232.361.546.361.874v20.292c.005.154-.021.308-.076.452a1.13 1.13 0 01-1.077.725h-.129a1.69 1.69 0 01-1.311-.778l-13.909-17.81v17.41a1.257 1.257 0 01-1.192 1.247 1.23 1.23 0 01-1.212-1.246V18.419h-.04zm25.264-.03a1.284 1.284 0 01.755-1.28 1.267 1.267 0 011.45.306 1.287 1.287 0 01.329.974v12.295l12.756-13.133c.262-.271.617-.432.994-.448.325.012.633.15.86.383.227.234.357.546.362.873a1.28 1.28 0 01-.418.897l-7.948 7.898 8.574 10.53c.224.26.348.593.348.937a1.309 1.309 0 01-1.341 1.276 1.228 1.228 0 01-.994-.578l-8.365-10.46-4.828 4.846v4.886a1.278 1.278 0 01-.37.895 1.26 1.26 0 01-2.154-.895V18.389h-.01z"/><path fill-rule="evenodd" clip-rule="evenodd" d="M53.892 6.586l5.038 21.145a1.418 1.418 0 01-.22 1.297 1.356 1.356 0 01-1.183.535H53.52c-.69 5.812-5.57 10.315-11.489 10.315-5.917 0-10.798-4.503-11.488-10.314h-1.965C27.887 35.442 22.953 40 16.968 40c-5.994 0-10.934-4.573-11.612-10.466H1.45a1.364 1.364 0 01-1.154-.536 1.418 1.418 0 01-.24-1.267l5.05-21.145C5.455 4.26 7.639 0 13.486 0c.388 0 .76.157 1.034.435a1.5 1.5 0 010 2.101 1.45 1.45 0 01-1.034.435c-4.707 0-5.438 3.694-5.497 4.1L3.341 26.602h2.034c.746-5.817 5.652-10.31 11.593-10.31 5.939 0 10.843 4.488 11.593 10.3l1.998.01c.745-5.75 5.598-10.189 11.473-10.189 5.886 0 10.746 4.456 11.477 10.222v-.053h2.137l-4.639-19.51c-.068-.407-.77-4.1-5.497-4.1a1.45 1.45 0 01-1.033-.436 1.498 1.498 0 01-.428-1.05c0-.394.154-.772.428-1.05A1.45 1.45 0 0145.51 0c5.848 0 8.03 4.259 8.382 6.586zm-28.22 22.977a9.122 9.122 0 00-.022-2.97c-.725-4.195-4.336-7.383-8.681-7.383-4.349 0-7.961 3.192-8.683 7.391a9.114 9.114 0 00-.025 2.94c.66 4.273 4.308 7.541 8.707 7.541 4.392 0 8.034-3.257 8.704-7.518zm24.942 0c.073-.461.112-.934.112-1.417 0-4.868-3.893-8.815-8.694-8.815-4.802 0-8.695 3.947-8.695 8.815 0 .482.039.956.112 1.418.669 4.194 4.257 7.397 8.583 7.397 4.325 0 7.913-3.203 8.582-7.397z" fill="#D22856"/></symbol><symbol id="icon-logo-header-desktop"><path d="M72.193 18.425c0-.333.133-.652.369-.89.237-.238.558-.376.897-.384h7.211c5.113 0 8.477 2.676 8.477 7.06v.06c0 4.798-4.078 7.286-8.899 7.286h-5.494v6.734a1.243 1.243 0 01-.332.965 1.286 1.286 0 01-.948.41 1.304 1.304 0 01-.949-.41 1.26 1.26 0 01-.332-.965V18.425zm8.156 10.861c3.746 0 6.207-1.975 6.207-4.937v-.059c0-3.18-2.42-4.828-6.026-4.828h-5.725v9.785l5.544.04zm13.67-11.019a1.243 1.243 0 01.332-.965 1.286 1.286 0 01.948-.41 1.304 1.304 0 01.948.41 1.258 1.258 0 01.333.965V38.29a1.245 1.245 0 01-.332.965 1.284 1.284 0 01-.949.41 1.305 1.305 0 01-.948-.41 1.26 1.26 0 01-.332-.965V18.267zm9.18.03a1.25 1.25 0 01.38-.868c.236-.23.553-.362.885-.367h.352c.261.005.516.075.743.203.226.127.416.31.552.528l13.751 17.23V18.237c0-.324.131-.636.364-.865a1.259 1.259 0 011.762 0c.233.23.364.54.364.865v20.094a1.117 1.117 0 01-.711 1.082 1.161 1.161 0 01-.454.083h-.13a1.739 1.739 0 01-.756-.23 1.709 1.709 0 01-.57-.54L105.67 21.09v17.24a1.238 1.238 0 01-.353.853c-.224.23-.529.366-.853.381a1.257 1.257 0 01-.871-.369 1.21 1.21 0 01-.354-.865V18.296h-.04zm25.541-.03a1.243 1.243 0 01.332-.965 1.287 1.287 0 01.949-.41 1.304 1.304 0 01.948.41 1.242 1.242 0 01.332.965v12.175l12.897-13.005a1.496 1.496 0 011.004-.444 1.3 1.3 0 01.87.38c.23.232.361.54.366.864a1.262 1.262 0 01-.422.889l-8.035 7.82 8.667 10.427c.227.258.352.587.352.928a1.287 1.287 0 01-.847 1.18 1.261 1.261 0 01-1.083-.08 1.23 1.23 0 01-.43-.409l-8.457-10.357-4.882 4.798v4.839a1.238 1.238 0 01-.373.886 1.282 1.282 0 01-.902.368 1.288 1.288 0 01-.902-.368 1.244 1.244 0 01-.374-.886V18.267h-.01z"/><path d="M98.94 9.746a3.678 3.678 0 01-2.574-1.047 3.554 3.554 0 01-1.072-2.528c0 .948-.383 1.857-1.065 2.528a3.668 3.668 0 01-2.57 1.047c.965.002 1.89.381 2.57 1.053a3.554 3.554 0 011.065 2.53 3.561 3.561 0 011.071-2.53 3.688 3.688 0 012.575-1.053z" fill="#D22856"/><path d="M43.287 19.067h.733a2.47 2.47 0 00-.906-.887 2.523 2.523 0 00-1.233-.328 2.03 2.03 0 01-1.166-.368 1.978 1.978 0 01-.732-.965c-.724.206-1.427.477-2.1.81h.191c.533 0 1.044.208 1.42.578.377.37.589.873.589 1.397.005.095.005.19 0 .286a8.977 8.977 0 013.204-.523z"/><path d="M60.733 27.647l-5.192-21.08C55.179 4.245 52.929 0 46.903 0c-.4 0-.783.156-1.066.434a1.469 1.469 0 00-.44 1.047c0 .393.158.77.44 1.047a1.52 1.52 0 001.066.434c4.871 0 5.594 3.683 5.665 4.088l4.78 19.452H55.25a11.721 11.721 0 00-1.724-4.78 11.946 11.946 0 00-3.599-3.633 2.502 2.502 0 00-1.116.908c-.274.404-.42.878-.42 1.363.005.086.005.171 0 .257a9.148 9.148 0 012.922 3.207 8.974 8.974 0 011.095 4.169 9.042 9.042 0 01-.14 1.48 8.849 8.849 0 01-3.05 5.393 9.132 9.132 0 01-5.885 2.141 9.132 9.132 0 01-5.885-2.141 8.849 8.849 0 01-3.049-5.392 9.031 9.031 0 01-.14-1.481c.015-1.37.341-2.72.954-3.95a2.023 2.023 0 01-1.33-.625 1.957 1.957 0 01-.538-1.35.694.694 0 00-.191-.483 11.566 11.566 0 00-1.798 4.936h-1.868a11.782 11.782 0 00-3.933-7.54 12.17 12.17 0 00-8.05-3.03 12.17 12.17 0 00-8.05 3.03 11.782 11.782 0 00-3.932 7.54h-2.08L8.233 7.05c.061-.405.814-4.088 5.666-4.088.4 0 .783-.156 1.065-.434.282-.277.441-.654.441-1.047 0-.393-.159-.77-.441-1.047A1.52 1.52 0 0013.899 0C7.872 0 5.623 4.246 5.26 6.566L.058 27.647a1.38 1.38 0 00.247 1.263 1.43 1.43 0 001.189.534h4.018c.082.611.21 1.215.382 1.807a.731.731 0 00.1-.355c0-.524.212-1.026.589-1.397.376-.37.887-.578 1.42-.578.163.002.325.025.482.069a8.835 8.835 0 01-.07-1.037c.002-.496.046-.991.13-1.48a8.848 8.848 0 013.042-5.414 9.131 9.131 0 015.897-2.152c2.165 0 4.258.763 5.898 2.152a8.848 8.848 0 013.041 5.413c.085.49.128.985.131 1.481a8.87 8.87 0 01-2.665 6.267 9.18 9.18 0 01-6.374 2.62 9.146 9.146 0 01-5.454-1.708c-.363.31-.826.48-1.306.483a.76.76 0 00-.526.22.734.734 0 00-.217.521 1.946 1.946 0 01-.181.8 12.088 12.088 0 007.643 2.705 12.174 12.174 0 008.012-2.951 11.789 11.789 0 004-7.436h1.829a11.784 11.784 0 003.944 7.51A12.171 12.171 0 0043.292 40a12.17 12.17 0 008.033-3.015 11.784 11.784 0 003.944-7.511h4.018c.232.016.465-.024.678-.117.212-.093.398-.236.541-.417a1.38 1.38 0 00.227-1.293z"/><path d="M50.92 15.917a4.576 4.576 0 01-1.729-.335 4.515 4.515 0 01-1.466-.96 4.431 4.431 0 01-.98-1.44 4.37 4.37 0 01-.344-1.699 4.406 4.406 0 01-1.328 3.136 4.56 4.56 0 01-3.192 1.298 4.57 4.57 0 013.193 1.304 4.416 4.416 0 011.327 3.14c0-1.18.476-2.31 1.323-3.143a4.56 4.56 0 013.196-1.301zm-12.846 3.466a2.786 2.786 0 01-1.953-.796 2.692 2.692 0 01-.809-1.92c0 .719-.29 1.408-.805 1.917a2.786 2.786 0 01-1.947.799c.73 0 1.43.285 1.946.792.516.507.806 1.196.806 1.913a2.693 2.693 0 01.813-1.914 2.787 2.787 0 011.95-.791zM10.785 33.64a2.786 2.786 0 01-1.94-.802 2.692 2.692 0 01-.802-1.913c0 .719-.29 1.408-.805 1.917a2.786 2.786 0 01-1.947.799c.73.002 1.43.29 1.947.799.516.508.805 1.198.805 1.916 0-.717.288-1.404.802-1.913a2.786 2.786 0 011.94-.802z" fill="#D22856"/></symbol><symbol id="icon-logo-header-mobile"><path d="M.005 1.549A1.286 1.286 0 011.257.262H8.39c5.057 0 8.385 2.703 8.385 7.13v.06c0 4.846-4.033 7.358-8.802 7.358H2.538v6.801a1.28 1.28 0 01-.754 1.28 1.269 1.269 0 01-1.717-.758 1.28 1.28 0 01-.062-.522V1.549zm8.067 10.968c3.706 0 6.14-1.994 6.14-4.986v-.06c0-3.21-2.394-4.875-5.961-4.875H2.588v9.881l5.484.04zM21.593 1.389a1.282 1.282 0 01.755-1.28 1.268 1.268 0 011.717.758c.056.168.077.346.062.522v20.222a1.28 1.28 0 01-.754 1.28 1.27 1.27 0 01-1.717-.758 1.282 1.282 0 01-.063-.522V1.389zm9.081.03A1.278 1.278 0 0131.926.173h.348a1.535 1.535 0 011.281.737l13.6 17.4V1.36A1.239 1.239 0 0148.389.122c.327 0 .64.13.871.362.231.232.36.546.36.874V21.65a1.14 1.14 0 01-.703 1.092 1.13 1.13 0 01-.449.085h-.129a1.695 1.695 0 01-1.311-.778L33.117 4.24v17.41a1.258 1.258 0 01-1.191 1.247 1.238 1.238 0 01-1.212-1.247V1.42h-.04zm25.264-.03a1.282 1.282 0 01.755-1.28 1.268 1.268 0 011.717.758c.056.168.077.346.062.522v12.295L71.228.55c.262-.271.618-.432.994-.448a1.27 1.27 0 011.222 1.256 1.29 1.29 0 01-.418.898l-7.947 7.897 8.573 10.53c.224.26.348.593.348.937a1.312 1.312 0 01-.838 1.191 1.228 1.228 0 01-1.497-.493L63.3 11.859l-4.828 4.846v4.886a1.27 1.27 0 01-.78 1.17 1.259 1.259 0 01-1.648-.685 1.27 1.27 0 01-.096-.485V1.389h-.01z"/></symbol><symbol id="icon-logo-header-tablet"><path clip-rule="evenodd" d="M53.892 6.586l5.038 21.145a1.418 1.418 0 01-.22 1.297 1.356 1.356 0 01-1.183.535H53.52c-.69 5.812-5.57 10.315-11.489 10.315-5.917 0-10.798-4.503-11.488-10.314h-1.965C27.887 35.442 22.953 40 16.968 40c-5.994 0-10.934-4.573-11.612-10.466H1.45a1.364 1.364 0 01-1.154-.536 1.418 1.418 0 01-.24-1.267l5.05-21.145C5.455 4.26 7.639 0 13.486 0c.388 0 .76.157 1.034.435a1.5 1.5 0 010 2.101 1.45 1.45 0 01-1.034.435c-4.707 0-5.438 3.694-5.497 4.1L3.341 26.602h2.034c.746-5.817 5.652-10.31 11.593-10.31 5.939 0 10.843 4.488 11.593 10.3l1.998.01c.745-5.75 5.598-10.189 11.473-10.189 5.886 0 10.746 4.456 11.477 10.222v-.053h2.137l-4.639-19.51c-.068-.407-.77-4.1-5.497-4.1a1.45 1.45 0 01-1.033-.436 1.498 1.498 0 01-.428-1.05c0-.394.154-.772.428-1.05A1.45 1.45 0 0145.51 0c5.848 0 8.03 4.259 8.382 6.586zm-28.22 22.977a9.122 9.122 0 00-.022-2.97c-.725-4.195-4.336-7.383-8.681-7.383-4.349 0-7.961 3.192-8.683 7.391a9.114 9.114 0 00-.025 2.94c.66 4.273 4.308 7.541 8.707 7.541 4.392 0 8.034-3.257 8.704-7.518zm24.942 0c.073-.461.112-.934.112-1.417 0-4.868-3.893-8.815-8.694-8.815-4.802 0-8.695 3.947-8.695 8.815 0 .482.039.956.112 1.418.669 4.194 4.257 7.397 8.583 7.397 4.325 0 7.913-3.203 8.582-7.397z"/><path d="M71.005 18.549a1.284 1.284 0 011.252-1.287h7.133c5.057 0 8.385 2.703 8.385 7.13v.06c0 4.846-4.034 7.358-8.802 7.358h-5.435v6.801a1.282 1.282 0 01-.754 1.28 1.27 1.27 0 01-1.717-.758 1.282 1.282 0 01-.062-.522V18.549zm8.067 10.968c3.706 0 6.14-1.994 6.14-4.986v-.06c0-3.21-2.395-4.875-5.961-4.875h-5.663v9.881l5.484.04zm13.522-11.128a1.282 1.282 0 01.754-1.28 1.269 1.269 0 011.717.758c.056.168.077.346.062.522v20.222a1.282 1.282 0 01-.754 1.28 1.27 1.27 0 01-1.717-.758 1.282 1.282 0 01-.063-.522V18.389zm9.08.03a1.278 1.278 0 011.252-1.247h.347a1.535 1.535 0 011.282.738l13.601 17.4V18.36c0-.329.13-.643.361-.875a1.229 1.229 0 011.742 0c.231.232.361.546.361.874v20.292c.005.154-.021.308-.076.452a1.13 1.13 0 01-1.077.725h-.129a1.69 1.69 0 01-1.311-.778l-13.909-17.81v17.41a1.257 1.257 0 01-1.192 1.247 1.23 1.23 0 01-1.212-1.246V18.419h-.04zm25.264-.03a1.284 1.284 0 01.755-1.28 1.267 1.267 0 011.45.306 1.287 1.287 0 01.329.974v12.295l12.756-13.133c.262-.271.617-.432.994-.448.325.012.633.15.86.383.227.234.357.546.362.873a1.28 1.28 0 01-.418.897l-7.948 7.898 8.574 10.53c.224.26.348.593.348.937a1.309 1.309 0 01-1.341 1.276 1.228 1.228 0 01-.994-.578l-8.365-10.46-4.828 4.846v4.886a1.278 1.278 0 01-.37.895 1.26 1.26 0 01-2.154-.895V18.389h-.01z"/></symbol><symbol id="icon-twitter"><path d="M11.564.169A3.675 3.675 0 0113.672.14c.688.196 1.291.59 1.723 1.122.71-.21 1.41-.447 2.131-.656a2.03 2.03 0 01-.253.917c-.157.284-.38.533-.653.729.253.026.508-.002.747-.081.24-.08.456-.208.633-.376-.099.414-.3.801-.588 1.131-.287.33-.653.594-1.07.772-.247 6.27-3.367 10.467-10.689 10.296H5.15c-.443 0-4.418-.428-5.149-1.75 1.752.245 3.539-.147 4.984-1.095-1.03-.286-2.852-.447-3.161-2.74.388.133.81.163 1.215.085C1.76 7.705.34 7.039.422 4.993a2.17 2.17 0 001.421.438C1.102 5.203-.247 2.31.896.825c1.926 1.723 3.964 3.35 7.59 3.512C8.711 2.205 9.69.777 11.563.169z" fill="#D22856"/></symbol><symbol id="icon-youtube"><path d="M1.834 12.809a1.257 1.257 0 01-1.285.03 1.097 1.097 0 01-.443-.457.97.97 0 01-.092-.603V1.221A.97.97 0 01.106.618 1.09 1.09 0 01.549.16a1.256 1.256 0 011.285.031l12.4 5.502c1.022.445 1.022 1.169 0 1.614l-12.4 5.502z" fill="#D22856"/></symbol></svg>